<svg width="149" height="30" viewBox="0 0 149 30" fill="none" xmlns="http://www.w3.org/2000/svg">
<path d="M24.5038 8.44987C25.0195 8.31173 25.4755 8.00788 25.8014 7.58517C26.1273 7.16244 26.305 6.64429 26.3073 6.11061V6.10426C26.3073 5.46284 26.0525 4.84769 25.5987 4.39414C25.145 3.94059 24.5296 3.68579 23.8881 3.68579H23.8818C23.348 3.68813 22.8298 3.86589 22.407 4.19168C21.9843 4.51747 21.6803 4.97322 21.5422 5.48868C21.147 6.91986 20.2929 8.18191 19.1113 9.08129C17.9295 9.98067 16.4853 10.4677 15.0001 10.4677C13.5149 10.4677 12.0707 9.98067 10.889 9.08129C9.70726 8.18191 8.85331 6.91986 8.45806 5.48868C8.31981 4.97326 8.01585 4.51758 7.59301 4.19187C7.17018 3.86615 6.65194 3.68846 6.11814 3.6862H6.1118C5.47017 3.6862 4.8548 3.941 4.4011 4.39455C3.94739 4.8481 3.6925 5.46325 3.6925 6.10467V6.11101C3.69487 6.64463 3.87269 7.16268 4.19859 7.58533C4.5245 8.00796 4.98039 8.31175 5.49601 8.44987C6.92767 8.84496 8.19016 9.69864 9.08984 10.88C9.98952 12.0613 10.4767 13.505 10.4767 14.9897C10.4767 16.4744 9.98952 17.9181 9.08984 19.0995C8.19016 20.2808 6.92767 21.1345 5.49601 21.5295C4.98041 21.6677 4.52456 21.9715 4.19869 22.3941C3.87281 22.8167 3.695 23.3347 3.69264 23.8683V23.8746C3.69264 24.5161 3.94753 25.1311 4.40123 25.5848C4.85495 26.0383 5.47029 26.2931 6.11193 26.2931H6.11828C6.65209 26.2908 7.1703 26.1129 7.5931 25.7872C8.01587 25.4613 8.31976 25.0057 8.45793 24.4902C8.85317 23.0591 9.70714 21.797 10.8888 20.8976C12.0706 19.9981 13.5148 19.5112 15 19.5112C16.4852 19.5112 17.9294 19.9981 19.1112 20.8976C20.2928 21.797 21.1468 23.0591 21.5421 24.4902C21.6801 25.0057 21.9841 25.4615 22.4069 25.7873C22.8297 26.1131 23.348 26.2909 23.8818 26.2932H23.8882C24.5298 26.2932 25.1451 26.0383 25.5988 25.5848C26.0525 25.1313 26.3075 24.5161 26.3075 23.8748V23.8683C26.3052 23.3346 26.1273 22.8166 25.8014 22.394C25.4755 21.9713 25.0196 21.6676 24.504 21.5294C23.0724 21.1343 21.8099 20.2807 20.9102 19.0993C20.0104 17.918 19.5233 16.4743 19.5233 14.9896C19.5233 13.5049 20.0104 12.0611 20.9102 10.8798C21.8099 9.69851 23.0724 8.84484 24.504 8.44973L24.5038 8.44987Z" fill="white"/>
<path d="M3.16565 1.42824C3.24347 1.50564 3.34348 1.55687 3.45176 1.57479C3.56004 1.59272 3.67121 1.57645 3.76983 1.52826C4.66958 1.09375 5.68197 0.949024 6.66742 1.11405C7.65289 1.27907 8.56289 1.74572 9.27199 2.44965C9.36974 2.54814 9.50184 2.60494 9.64057 2.60811C9.77931 2.61129 9.91387 2.56059 10.016 2.46665C10.0668 2.41821 10.1073 2.36011 10.1353 2.29577C10.1633 2.23142 10.1781 2.16214 10.179 2.09197C10.1798 2.02181 10.1665 1.9522 10.1401 1.88722C10.1136 1.82224 10.0744 1.76321 10.0248 1.71359C9.16008 0.851012 8.04835 0.278924 6.8438 0.0766955C5.63927 -0.125533 4.40166 0.0521232 3.30266 0.585018C3.22784 0.62212 3.16292 0.676528 3.11333 0.74373C3.06374 0.810932 3.03088 0.88899 3.01748 0.971429C3.00409 1.05387 3.01054 1.13831 3.03631 1.21776C3.06208 1.2972 3.10642 1.36936 3.16565 1.42824Z" fill="white"/>
<path d="M0.591577 3.29223C0.0593279 4.38733 -0.119848 5.62054 0.0787692 6.82175C0.277386 8.02297 0.844007 9.13296 1.70046 9.99859C1.79052 10.0932 1.9118 10.152 2.04188 10.1641C2.17195 10.1763 2.30202 10.1409 2.40804 10.0646C2.46809 10.0192 2.51772 9.9615 2.55357 9.89533C2.58943 9.82917 2.61067 9.75607 2.61586 9.68101C2.62105 9.60594 2.61008 9.53063 2.58369 9.46016C2.55729 9.38968 2.51608 9.32569 2.46284 9.2725C1.7553 8.56347 1.28585 7.65203 1.11953 6.66444C0.953208 5.67684 1.09825 4.66198 1.53457 3.76046C1.58312 3.66177 1.59965 3.55039 1.58186 3.44186C1.56409 3.33332 1.51286 3.23305 1.43535 3.155C1.37642 3.09574 1.30421 3.05138 1.2247 3.02561C1.14519 2.99985 1.06068 2.9934 0.978185 3.00681C0.895687 3.02024 0.817578 3.05312 0.75034 3.10277C0.683104 3.1524 0.628675 3.21736 0.591577 3.29223Z" fill="white"/>
<path d="M26.2306 28.4524C25.3305 28.887 24.3179 29.0317 23.3321 28.8663C22.3464 28.7011 21.4363 28.2341 20.7272 27.5298C20.6296 27.4318 20.498 27.3752 20.3598 27.3721C20.2214 27.3689 20.0874 27.4193 19.9855 27.5129C19.9344 27.5612 19.8937 27.6194 19.8655 27.6838C19.8374 27.7482 19.8224 27.8175 19.8215 27.8879C19.8205 27.9582 19.8337 28.028 19.8602 28.093C19.8867 28.1582 19.9259 28.2173 19.9756 28.267C20.8403 29.1296 21.952 29.7016 23.1566 29.9039C24.3611 30.1061 25.5987 29.9285 26.6977 29.3956C26.7725 29.3585 26.8374 29.3041 26.8871 29.2369C26.9367 29.1696 26.9695 29.0916 26.9828 29.0091C26.9962 28.9267 26.9897 28.8422 26.9639 28.7628C26.9381 28.6833 26.8937 28.6112 26.8345 28.5524C26.7567 28.475 26.6567 28.4239 26.5484 28.4059C26.4403 28.388 26.3291 28.4042 26.2306 28.4524Z" fill="white"/>
<path d="M27.5274 19.973C27.4339 20.0749 27.3834 20.2089 27.3866 20.3472C27.3897 20.4854 27.4463 20.617 27.5443 20.7145C28.2492 21.4238 28.7163 22.3345 28.8811 23.3206C29.0461 24.3069 28.9006 25.3199 28.4649 26.2199C28.4165 26.3185 28.4002 26.4297 28.418 26.5381C28.436 26.6464 28.4871 26.7466 28.5646 26.8244C28.6235 26.8837 28.6955 26.9279 28.7749 26.9538C28.8543 26.9796 28.9387 26.9861 29.0211 26.9727C29.1035 26.9593 29.1816 26.9267 29.2487 26.8772C29.3159 26.8277 29.3705 26.7629 29.4076 26.6881C29.9421 25.5892 30.121 24.3512 29.9193 23.146C29.7176 21.9408 29.1454 20.8284 28.2822 19.9631C28.2326 19.9134 28.1733 19.8741 28.1081 19.8475C28.0429 19.8209 27.9731 19.8077 27.9028 19.8086C27.8323 19.8096 27.763 19.8246 27.6984 19.8529C27.6339 19.8811 27.5759 19.9219 27.5274 19.973Z" fill="white"/>
<path d="M28.4658 3.76129C28.9011 4.66115 29.0462 5.67389 28.8811 6.65971C28.7161 7.64553 28.2489 8.55582 27.5443 9.26496C27.4463 9.36242 27.3897 9.49404 27.3866 9.63223C27.3834 9.77042 27.4339 9.90446 27.5274 10.0063C27.5757 10.0573 27.6339 10.0981 27.6983 10.1262C27.7627 10.1544 27.8321 10.1694 27.9024 10.1703C27.9727 10.1713 28.0424 10.1581 28.1076 10.1317C28.1726 10.1052 28.2319 10.066 28.2816 10.0163C29.1445 9.15146 29.7168 8.0395 29.9187 6.83477C30.1208 5.63006 29.9426 4.39234 29.4089 3.29347C29.3718 3.2187 29.3173 3.15388 29.25 3.10435C29.1828 3.05482 29.1048 3.02203 29.0223 3.0087C28.94 2.99537 28.8555 3.00186 28.7761 3.02766C28.6966 3.05346 28.6245 3.09781 28.5657 3.15705C28.4883 3.23489 28.4371 3.33492 28.4191 3.44321C28.4013 3.55151 28.4176 3.66268 28.4658 3.76129Z" fill="white"/>
<path d="M20.7268 2.4504C21.4362 1.74571 22.3468 1.27857 23.3329 1.11349C24.3191 0.948396 25.3322 1.0935 26.2324 1.52875C26.331 1.57706 26.4423 1.59341 26.5505 1.57552C26.6589 1.55765 26.7589 1.50642 26.8368 1.429C26.8961 1.37016 26.9405 1.29803 26.9663 1.21861C26.992 1.13919 26.9985 1.05477 26.9852 0.972331C26.9719 0.889895 26.9391 0.811828 26.8896 0.744603C26.84 0.677377 26.7751 0.62293 26.7003 0.585774C25.601 0.0520442 24.363 -0.126181 23.1579 0.0758445C21.9527 0.27787 20.8403 0.850119 19.9752 1.71313C19.9256 1.76285 19.8863 1.822 19.8598 1.88711C19.8334 1.95224 19.8201 2.022 19.8211 2.09228C19.822 2.16258 19.837 2.23198 19.8651 2.29638C19.8933 2.36079 19.9341 2.4189 19.9851 2.46728C20.087 2.56077 20.221 2.61121 20.3594 2.60806C20.4976 2.60492 20.6292 2.54843 20.7268 2.4504Z" fill="white"/>
<path d="M9.27325 27.5298C8.56389 28.2344 7.65328 28.7015 6.66712 28.8666C5.68096 29.0317 4.66788 28.8866 3.76771 28.4513C3.66908 28.4031 3.55786 28.3868 3.44953 28.4046C3.34119 28.4225 3.24113 28.4738 3.16326 28.5512C3.10402 28.61 3.05965 28.6821 3.03384 28.7616C3.00803 28.841 3.00152 28.9255 3.01486 29.0078C3.02821 29.0903 3.06101 29.1683 3.11055 29.2355C3.16009 29.3027 3.22495 29.3573 3.29973 29.3944C4.39897 29.9281 5.63711 30.1063 6.84225 29.9042C8.04739 29.7023 9.15973 29.13 10.0248 28.267C10.0745 28.2174 10.1138 28.1581 10.1403 28.093C10.1667 28.028 10.1799 27.9582 10.1789 27.8879C10.178 27.8175 10.163 27.7482 10.1348 27.6838C10.1066 27.6194 10.0658 27.5612 10.0148 27.5129C9.913 27.4193 9.77889 27.3689 9.64064 27.372C9.50241 27.3752 9.37073 27.4316 9.27325 27.5298Z" fill="white"/>
<path d="M1.53415 26.2181C1.09883 25.3182 0.95369 24.3055 1.11876 23.3197C1.28382 22.3338 1.75096 21.4235 2.45568 20.7144C2.55369 20.6169 2.6102 20.4853 2.61334 20.3471C2.61649 20.2088 2.56603 20.0748 2.47255 19.973C2.42416 19.9219 2.36605 19.8812 2.30165 19.853C2.23724 19.8249 2.16784 19.81 2.09756 19.809C2.02727 19.8081 1.9575 19.8213 1.89238 19.8477C1.82727 19.8742 1.76811 19.9134 1.71841 19.9631C0.855378 20.8279 0.28312 21.9399 0.0810941 23.1446C-0.120933 24.3494 0.0572937 25.587 0.591028 26.6859C0.628182 26.7607 0.682631 26.8256 0.749857 26.8751C0.817084 26.9246 0.895151 26.9574 0.977588 26.9706C1.06002 26.984 1.14445 26.9775 1.22387 26.9517C1.3033 26.926 1.37541 26.8816 1.43427 26.8223C1.51168 26.7445 1.56289 26.6445 1.5808 26.5361C1.5987 26.4279 1.5824 26.3167 1.53415 26.2181Z" fill="white"/>
<path d="M46.7734 17.4355C46.7734 17.8717 46.7181 18.2656 46.6074 18.6172C46.4967 18.9622 46.3503 19.2682 46.168 19.5352C45.9857 19.7956 45.7741 20.0202 45.5332 20.209C45.2923 20.3913 45.0384 20.541 44.7715 20.6582C44.5111 20.7754 44.2441 20.8633 43.9707 20.9219C43.7038 20.974 43.4499 21 43.209 21H38.6289C38.1927 21 37.8021 20.9447 37.457 20.834C37.112 20.7233 36.806 20.5768 36.5391 20.3945C36.2786 20.2057 36.054 19.9909 35.8652 19.75C35.6829 19.5091 35.5332 19.2585 35.416 18.998C35.2988 18.7311 35.2109 18.4642 35.1523 18.1973C35.1003 17.9238 35.0742 17.6699 35.0742 17.4355V13.998C35.0742 13.347 35.1914 12.7969 35.4258 12.3477C35.6667 11.8919 35.9629 11.5241 36.3145 11.2441C36.6725 10.9577 37.0599 10.7526 37.4766 10.6289C37.8932 10.5052 38.2773 10.4434 38.6289 10.4434H43.209V12.9824H38.6484C38.3099 12.9824 38.0527 13.0703 37.877 13.2461C37.7012 13.4154 37.6133 13.666 37.6133 13.998V17.416C37.6133 17.7611 37.6979 18.0215 37.8672 18.1973C38.043 18.373 38.2969 18.4609 38.6289 18.4609H43.209C43.554 18.4609 43.8112 18.373 43.9805 18.1973C44.1497 18.0215 44.2344 17.7676 44.2344 17.4355V5.98047H46.7734V17.4355ZM58.4336 12.9824H52.7207C52.3757 12.9824 52.1152 13.0703 51.9395 13.2461C51.7637 13.4154 51.6758 13.666 51.6758 13.998V21H49.1367V13.998C49.1367 13.5618 49.1921 13.1712 49.3027 12.8262C49.4134 12.4811 49.5599 12.1784 49.7422 11.918C49.931 11.651 50.1458 11.4264 50.3867 11.2441C50.6276 11.0553 50.8783 10.9023 51.1387 10.7852C51.4056 10.668 51.6725 10.5833 51.9395 10.5312C52.2129 10.4727 52.4668 10.4434 52.7012 10.4434H58.4336V12.9824ZM71.4316 13.9395C71.4316 14.291 71.3698 14.6719 71.2461 15.082C71.1224 15.4857 70.9206 15.8633 70.6406 16.2148C70.3672 16.5599 70.0059 16.8496 69.5566 17.084C69.1139 17.3184 68.5736 17.4355 67.9355 17.4355H63.3555V15.0234H67.9355C68.2806 15.0234 68.5475 14.9193 68.7363 14.7109C68.9251 14.4961 69.0195 14.2324 69.0195 13.9199C69.0195 13.5879 68.9121 13.3275 68.6973 13.1387C68.4889 12.9499 68.235 12.8555 67.9355 12.8555H63.3555C63.0104 12.8555 62.7435 12.9629 62.5547 13.1777C62.3659 13.3861 62.2715 13.6465 62.2715 13.959V17.5039C62.2715 17.8424 62.3757 18.1061 62.584 18.2949C62.7988 18.4837 63.0625 18.5781 63.375 18.5781H67.9355V21H63.3555C63.0039 21 62.623 20.9382 62.2129 20.8145C61.8092 20.6908 61.4316 20.4922 61.0801 20.2188C60.735 19.9388 60.4453 19.5775 60.2109 19.1348C59.9766 18.6855 59.8594 18.1419 59.8594 17.5039V13.9395C59.8594 13.5879 59.9212 13.2103 60.0449 12.8066C60.1686 12.3965 60.3672 12.0189 60.6406 11.6738C60.9206 11.3223 61.2819 11.0293 61.7246 10.7949C62.1738 10.5605 62.7174 10.4434 63.3555 10.4434H67.9355C68.2871 10.4434 68.6647 10.5052 69.0684 10.6289C69.4785 10.7526 69.8561 10.9544 70.2012 11.2344C70.5527 11.5078 70.8457 11.8691 71.0801 12.3184C71.3145 12.7611 71.4316 13.3014 71.4316 13.9395ZM83.3457 17.4355C83.3457 17.8717 83.2904 18.2656 83.1797 18.6172C83.069 18.9622 82.9225 19.2682 82.7402 19.5352C82.5579 19.7956 82.3464 20.0202 82.1055 20.209C81.8646 20.3913 81.6107 20.541 81.3438 20.6582C81.0833 20.7754 80.8164 20.8633 80.543 20.9219C80.276 20.974 80.0221 21 79.7812 21H72.9062V18.4609H79.7617C80.1068 18.4609 80.3672 18.373 80.543 18.1973C80.7188 18.0215 80.8066 17.7676 80.8066 17.4355C80.7741 16.7585 80.4323 16.4199 79.7812 16.4199H75.8457C75.2858 16.4199 74.8105 16.3223 74.4199 16.127C74.0293 15.9316 73.7103 15.6875 73.4629 15.3945C73.222 15.1016 73.0462 14.7858 72.9355 14.4473C72.8314 14.1087 72.7793 13.793 72.7793 13.5C72.7793 12.9336 72.8802 12.4583 73.082 12.0742C73.2839 11.6836 73.5378 11.3678 73.8438 11.127C74.1497 10.8861 74.4818 10.7135 74.8398 10.6094C75.1979 10.4987 75.5332 10.4434 75.8457 10.4434H82.0859V12.9824H75.8652C75.735 12.9824 75.6309 12.9987 75.5527 13.0312C75.4811 13.0573 75.4258 13.0964 75.3867 13.1484C75.3542 13.194 75.3346 13.2461 75.3281 13.3047C75.3216 13.3568 75.3184 13.4089 75.3184 13.4609C75.3249 13.5651 75.3444 13.6465 75.377 13.7051C75.4095 13.7637 75.4486 13.806 75.4941 13.832C75.5462 13.8581 75.6016 13.8743 75.6602 13.8809C75.7253 13.8809 75.7871 13.8809 75.8457 13.8809H79.7812C80.4323 13.8809 80.9857 13.998 81.4414 14.2324C81.8971 14.4668 82.265 14.763 82.5449 15.1211C82.8249 15.4727 83.0267 15.8568 83.1504 16.2734C83.2806 16.6901 83.3457 17.0775 83.3457 17.4355ZM95.3379 17.4355C95.3379 17.8717 95.2826 18.2656 95.1719 18.6172C95.0612 18.9622 94.9147 19.2682 94.7324 19.5352C94.5501 19.7956 94.3385 20.0202 94.0977 20.209C93.8568 20.3913 93.6029 20.541 93.3359 20.6582C93.0755 20.7754 92.8086 20.8633 92.5352 20.9219C92.2682 20.974 92.0143 21 91.7734 21H84.8984V18.4609H91.7539C92.099 18.4609 92.3594 18.373 92.5352 18.1973C92.7109 18.0215 92.7988 17.7676 92.7988 17.4355C92.7663 16.7585 92.4245 16.4199 91.7734 16.4199H87.8379C87.278 16.4199 86.8027 16.3223 86.4121 16.127C86.0215 15.9316 85.7025 15.6875 85.4551 15.3945C85.2142 15.1016 85.0384 14.7858 84.9277 14.4473C84.8236 14.1087 84.7715 13.793 84.7715 13.5C84.7715 12.9336 84.8724 12.4583 85.0742 12.0742C85.276 11.6836 85.5299 11.3678 85.8359 11.127C86.1419 10.8861 86.474 10.7135 86.832 10.6094C87.1901 10.4987 87.5254 10.4434 87.8379 10.4434H94.0781V12.9824H87.8574C87.7272 12.9824 87.623 12.9987 87.5449 13.0312C87.4733 13.0573 87.418 13.0964 87.3789 13.1484C87.3464 13.194 87.3268 13.2461 87.3203 13.3047C87.3138 13.3568 87.3105 13.4089 87.3105 13.4609C87.3171 13.5651 87.3366 13.6465 87.3691 13.7051C87.4017 13.7637 87.4408 13.806 87.4863 13.832C87.5384 13.8581 87.5938 13.8743 87.6523 13.8809C87.7174 13.8809 87.7793 13.8809 87.8379 13.8809H91.7734C92.4245 13.8809 92.9779 13.998 93.4336 14.2324C93.8893 14.4668 94.2572 14.763 94.5371 15.1211C94.8171 15.4727 95.0189 15.8568 95.1426 16.2734C95.2728 16.6901 95.3379 17.0775 95.3379 17.4355ZM106.549 21H104.01V13.998C104.01 13.666 103.922 13.4154 103.746 13.2461C103.57 13.0703 103.31 12.9824 102.965 12.9824H99.6641V21H97.125V11.7031C97.125 11.5273 97.1576 11.3646 97.2227 11.2148C97.2878 11.0586 97.3789 10.9251 97.4961 10.8145C97.6133 10.6973 97.75 10.6061 97.9062 10.541C98.0625 10.4759 98.2285 10.4434 98.4043 10.4434H102.984C103.336 10.4434 103.714 10.5052 104.117 10.6289C104.521 10.7526 104.905 10.9512 105.27 11.2246V10.4434H108.707C108.948 10.4434 109.202 10.4727 109.469 10.5312C109.736 10.5833 109.999 10.668 110.26 10.7852C110.527 10.9023 110.781 11.0553 111.021 11.2441C111.262 11.4264 111.474 11.651 111.656 11.918C111.839 12.1784 111.985 12.4811 112.096 12.8262C112.206 13.1712 112.262 13.5618 112.262 13.998V21H109.723V13.998C109.723 13.666 109.638 13.4154 109.469 13.2461C109.306 13.0703 109.052 12.9824 108.707 12.9824H106.422C106.507 13.2949 106.549 13.6335 106.549 13.998V21ZM125.504 17.5039C125.504 17.8555 125.442 18.2363 125.318 18.6465C125.195 19.0501 124.993 19.4277 124.713 19.7793C124.439 20.1243 124.078 20.4141 123.629 20.6484C123.186 20.8828 122.646 21 122.008 21H117.428C117.076 21 116.695 20.9382 116.285 20.8145C115.882 20.6908 115.504 20.4922 115.152 20.2188C114.807 19.9388 114.518 19.5775 114.283 19.1348C114.049 18.6855 113.932 18.1419 113.932 17.5039C113.932 17.1523 113.993 16.7715 114.117 16.3613C114.241 15.9512 114.439 15.5736 114.713 15.2285C114.993 14.877 115.354 14.584 115.797 14.3496C116.246 14.1152 116.79 13.998 117.428 13.998H122.008V16.4199H117.428C117.083 16.4199 116.816 16.5273 116.627 16.7422C116.438 16.9505 116.344 17.2109 116.344 17.5234C116.344 17.8555 116.451 18.1159 116.666 18.3047C116.887 18.487 117.148 18.5781 117.447 18.5781H122.008C122.353 18.5781 122.62 18.474 122.809 18.2656C122.997 18.0573 123.092 17.7969 123.092 17.4844V13.9395C123.092 13.6074 122.988 13.3438 122.779 13.1484C122.577 12.9531 122.32 12.8555 122.008 12.8555H116.432V10.4434H122.008C122.359 10.4434 122.737 10.5052 123.141 10.6289C123.551 10.7526 123.928 10.9544 124.273 11.2344C124.625 11.5078 124.918 11.8691 125.152 12.3184C125.387 12.7611 125.504 13.3014 125.504 13.9395V17.5039ZM136.91 12.9824H131.197C130.852 12.9824 130.592 13.0703 130.416 13.2461C130.24 13.4154 130.152 13.666 130.152 13.998V21H127.613V13.998C127.613 13.5618 127.669 13.1712 127.779 12.8262C127.89 12.4811 128.036 12.1784 128.219 11.918C128.408 11.651 128.622 11.4264 128.863 11.2441C129.104 11.0553 129.355 10.9023 129.615 10.7852C129.882 10.668 130.149 10.5833 130.416 10.5312C130.689 10.4727 130.943 10.4434 131.178 10.4434H136.91V12.9824ZM148.189 12.9824H143.756V21H141.188V12.9824H137.887V10.4434H141.188V6.99609H143.756V10.4434H148.189V12.9824Z" fill="white"/>
</svg>
